# xmcd CD database file
#
# Track frame offsets:
#	182
#	43770
#	96040
#	148007
#	160190
#	202855
#	263645
#
# Disc length: 4331 seconds
#
# Revision: 0
# Processed by: cddbd v1.5.1PL2 Copyright (c) Steve Scherf et al.
# Submitted via: CDex 1.51
#
DISCID=5710e907
DTITLE=Miles Davis - Fillmore West 10/17/'70
DYEAR=1900
DGENRE=Jazz
TTITLE0=Directions
TTITLE1=Honky Tonk
TTITLE2=What I say
TTITLE3=Sanctuary
TTITLE4=Yesternow
TTITLE5=Bitches Brew
TTITLE6=Inamorata - The Theme
EXTD=
EXTT0=
EXTT1=
EXTT2=
EXTT3=
EXTT4=
EXTT5=
EXTT6=
PLAYORDER=
